<svg xmlns="http://www.w3.org/2000/svg" xmlns:xlink="http://www.w3.org/1999/xlink" width="24" height="24" viewBox="0 0 24 24">
    <defs>
        <path id="a" d="M20.405 13.078c.045-.352.079-.704.079-1.078 0-.374-.034-.726-.08-1.078l2.387-1.815a.545.545 0 0 0 .136-.704l-2.262-3.806a.568.568 0 0 0-.498-.275.541.541 0 0 0-.192.033l-2.816 1.1a8.32 8.32 0 0 0-1.91-1.078l-.43-2.915A.547.547 0 0 0 14.263 1H9.741a.547.547 0 0 0-.554.462l-.43 2.915a8.75 8.75 0 0 0-1.911 1.078l-2.816-1.1a.657.657 0 0 0-.204-.033.563.563 0 0 0-.486.275L1.078 8.403a.533.533 0 0 0 .136.704L3.6 10.922A8.49 8.49 0 0 0 3.521 12c0 .363.034.726.08 1.078l-2.387 1.815a.545.545 0 0 0-.136.704l2.262 3.806a.568.568 0 0 0 .498.275.541.541 0 0 0 .192-.033l2.816-1.1a8.32 8.32 0 0 0 1.91 1.078l.43 2.915a.547.547 0 0 0 .555.462h4.523c.283 0 .52-.198.554-.462l.43-2.915a8.75 8.75 0 0 0 1.911-1.078l2.816 1.1a.657.657 0 0 0 .204.033.563.563 0 0 0 .486-.275l2.262-3.806a.545.545 0 0 0-.136-.704l-2.386-1.815zm-2.24-1.881c.046.341.057.572.057.803 0 .231-.022.473-.056.803l-.159 1.243 1.007.77 1.221.924-.791 1.331-1.437-.561-1.176-.462-1.018.748a6.67 6.67 0 0 1-1.413.803l-1.199.473-.18 1.243-.227 1.485h-1.583l-.215-1.485-.18-1.243-1.2-.473a6.463 6.463 0 0 1-1.39-.781l-1.03-.77-1.198.473-1.437.561-.791-1.331 1.221-.924 1.007-.77-.159-1.243A8.61 8.61 0 0 1 5.783 12c0-.22.022-.473.056-.803l.159-1.243-1.007-.77L3.77 8.26l.791-1.331 1.437.561 1.176.462 1.018-.748a6.67 6.67 0 0 1 1.413-.803l1.199-.473.18-1.243.227-1.485h1.572l.215 1.485.18 1.243 1.2.473c.486.198.938.451 1.39.781l1.03.77 1.198-.473 1.436-.561.792 1.331-1.21.935-1.007.77.159 1.243zM12.003 7.6C9.503 7.6 7.48 9.569 7.48 12s2.024 4.4 4.523 4.4c2.5 0 4.524-1.969 4.524-4.4s-2.024-4.4-4.524-4.4zm0 6.6c-1.243 0-2.261-.99-2.261-2.2 0-1.21 1.018-2.2 2.261-2.2 1.244 0 2.262.99 2.262 2.2 0 1.21-1.018 2.2-2.262 2.2z"/>
    </defs>
    <use fill="#00A5AC" fill-rule="nonzero" xlink:href="#a"/>
</svg>
