<svg xmlns="http://www.w3.org/2000/svg" xmlns:xlink="http://www.w3.org/1999/xlink" width="40" height="40" viewBox="0 0 40 40">
  <defs>
    <path id="user-a" d="M12,12 C14.21,12 16,10.21 16,8 C16,5.79 14.21,4 12,4 C9.79,4 8,5.79 8,8 C8,10.21 9.79,12 12,12 L12,12 Z M12,14 C9.33,14 4,15.34 4,18 L4,20 L20,20 L20,18 C20,15.34 14.67,14 12,14 L12,14 Z"/>
  </defs>
  <g fill="none" fill-rule="evenodd">
    <circle cx="20" cy="20" r="20" fill="#F5F5F5"/>
    <g transform="translate(8 7)">
      <polygon points="0 0 24 0 24 24 0 24"/>
      <mask id="user-b" fill="#fff">
        <use xlink:href="#user-a"/>
      </mask>
      <use fill="#000" xlink:href="#user-a"/>
      <g fill="#00A5AC" mask="url(#user-b)">
        <rect width="24" height="24"/>
      </g>
    </g>
  </g>
</svg>
